<svg width="656" height="1137" viewBox="0 0 656 1137" fill="none" xmlns="http://www.w3.org/2000/svg">
<path d="M567.845 284.335C585 325.43 581.513 363.435 576.747 407.933C570.849 463.029 581.397 514.442 594.004 567.206C603.732 607.924 613.625 649.289 613.271 691.567C611.85 860.672 417.362 929.976 299.177 928.549C179.563 927.103 36.0246 853.539 12.3165 703.583C-3.01473 606.608 32.2451 515.627 102.924 466.276C165.127 422.844 224.312 379.256 237.587 289.059C243.867 246.385 250.193 199.848 277.382 170.453C296.027 150.296 322.104 141.592 347.491 140.954C377.485 140.201 409.061 147.712 436.842 160.852C484.084 183.191 539.876 224.177 564.957 277.811C565.979 279.996 566.94 282.169 567.845 284.335Z" fill="#ECECEC"/>
<path d="M522.284 1119.78C522.284 1129.15 478.136 1136.75 376.818 1136.75C275.496 1136.75 131.375 1129.15 131.375 1119.78C131.375 1110.4 275.496 1102.81 376.818 1102.81C478.136 1102.81 522.284 1110.4 522.284 1119.78Z" fill="#ECECEC"/>
<path d="M154.019 240.383L154.631 241.403C155.322 242.55 156.323 243.472 157.522 244.063L158.587 244.591L157.57 245.206C156.422 245.893 155.501 246.898 154.909 248.093L154.381 249.161L153.765 248.14C153.078 246.997 152.073 246.072 150.874 245.48L149.809 244.952L150.83 244.341C151.974 243.65 152.895 242.646 153.491 241.451L154.019 240.383Z" fill="#F15B66"/>
<path d="M66.8254 206.441L67.4371 207.462C68.1282 208.609 69.1291 209.53 70.3286 210.122L71.3931 210.65L70.3763 211.265C69.2284 211.952 68.307 212.956 67.7151 214.151L67.1869 215.219L66.5712 214.199C65.8841 213.056 64.8792 212.131 63.6797 211.539L62.6152 211.011L63.636 210.4C64.7799 209.709 65.7014 208.704 66.2972 207.509L66.8254 206.441Z" fill="#F15B66"/>
<path d="M4.2102 331.672L4.82187 332.692C5.51298 333.84 6.5139 334.761 7.71341 335.352L8.77788 335.88L7.76107 336.496C6.6132 337.182 5.69172 338.187 5.09991 339.382L4.57165 340.45L3.956 339.429C3.26887 338.286 2.26398 337.361 1.06447 336.769L0 336.241L1.02078 335.63C2.16468 334.939 3.08616 333.935 3.68194 332.74L4.2102 331.672Z" fill="#F15B66"/>
<path d="M565.994 173.086L566.606 174.106C567.297 175.254 568.298 176.175 569.497 176.766L570.562 177.294L569.545 177.91C568.397 178.596 567.475 179.601 566.884 180.796L566.355 181.864L565.74 180.844C565.053 179.7 564.048 178.775 562.848 178.184L561.784 177.656L562.804 177.044C563.948 176.353 564.87 175.349 565.466 174.154L565.994 173.086Z" fill="#F15B66"/>
<path d="M613.395 293.051L614.006 294.071C614.698 295.218 615.698 296.14 616.898 296.731L617.962 297.259L616.946 297.874C615.798 298.561 614.876 299.566 614.284 300.761L613.756 301.829L613.141 300.808C612.453 299.665 611.449 298.74 610.249 298.148L609.185 297.62L610.205 297.009C611.349 296.318 612.271 295.314 612.867 294.119L613.395 293.051Z" fill="#F15B66"/>
<path d="M651.432 349.23L652.044 350.251C652.735 351.398 653.736 352.319 654.936 352.911L656 353.439L654.983 354.054C653.835 354.741 652.914 355.745 652.322 356.94L651.794 358.008L651.178 356.988C650.491 355.845 649.486 354.92 648.287 354.328L647.222 353.8L648.243 353.189C649.387 352.498 650.308 351.493 650.904 350.298L651.432 349.23Z" fill="#F15B66"/>
<path d="M628.025 214.047L628.636 215.067C629.327 216.215 630.328 217.136 631.528 217.727L632.592 218.255L631.576 218.871C630.428 219.557 629.506 220.562 628.914 221.757L628.386 222.825L627.77 221.804C627.083 220.661 626.078 219.736 624.879 219.144L623.814 218.616L624.835 218.005C625.979 217.314 626.901 216.31 627.496 215.115L628.025 214.047Z" fill="#F15B66"/>
<path d="M225.998 101.691L226.609 102.712C227.301 103.859 228.301 104.78 229.501 105.372L230.565 105.9L229.549 106.515C228.401 107.202 227.479 108.206 226.888 109.401L226.359 110.469L225.744 109.449C225.056 108.306 224.052 107.381 222.852 106.789L221.788 106.261L222.808 105.65C223.952 104.959 224.874 103.954 225.47 102.759L225.998 101.691Z" fill="#F15B66"/>
<path d="M247.064 33.2227L247.676 34.243C248.367 35.3903 249.368 36.3114 250.567 36.9029L251.632 37.431L250.615 38.0463C249.467 38.7331 248.546 39.7376 247.954 40.9326L247.426 42.0005L246.81 40.9802C246.123 39.8368 245.118 38.9118 243.918 38.3203L242.854 37.7922L243.875 37.1808C245.019 36.49 245.94 35.4856 246.536 34.2906L247.064 33.2227Z" fill="#F15B66"/>
<path d="M406.237 24.4453L406.848 25.4656C407.539 26.613 408.54 27.534 409.74 28.1256L410.804 28.6536L409.787 29.269C408.64 29.9558 407.718 30.9602 407.126 32.1552L406.598 33.2232L405.982 32.2029C405.295 31.0595 404.29 30.1345 403.091 29.5429L402.026 29.0149L403.047 28.4035C404.191 27.7127 405.113 26.7083 405.708 25.5133L406.237 24.4453Z" fill="#F15B66"/>
<path d="M455.978 99.9336L456.589 100.954C457.281 102.101 458.281 103.022 459.481 103.614L460.545 104.142L459.529 104.757C458.381 105.444 457.459 106.449 456.867 107.644L456.339 108.711L455.724 107.691C455.036 106.548 454.032 105.623 452.832 105.031L451.768 104.503L452.788 103.892C453.932 103.201 454.854 102.197 455.45 101.002L455.978 99.9336Z" fill="#F15B66"/>
<path d="M389.972 1073.85C392.186 1065.67 415.373 1062.8 421.542 1072.04C436.056 1093.79 466.592 1105.06 465.524 1113.75C463.944 1126.61 434.86 1127.57 421.242 1126.61C407.623 1125.65 394.483 1120.84 383.911 1116.11C352.857 1102.2 369.747 1075.79 369.73 1075.15C375.401 1075.15 376.571 1073.85 389.972 1073.85Z" fill="#17282F"/>
<path d="M215.953 1075.18C218.167 1067 243.636 1065.94 249.805 1075.18C264.319 1096.92 294.855 1108.2 293.787 1116.89C292.207 1129.75 263.123 1130.7 249.505 1129.75C235.886 1128.79 222.746 1123.98 212.173 1119.24C181.12 1105.34 201.34 1075.81 201.323 1075.18C206.994 1075.18 202.553 1075.18 215.953 1075.18Z" fill="#17282F"/>
<path d="M217.259 535.056L201.892 1059.27L253.974 1059.27L307.346 649.409L364.868 1059.27L418.705 1059.27C395.286 614.944 398.616 607.135 388.86 535.056" fill="#BB3556"/>
<path d="M224.128 614.407C225.053 614.495 225.992 614.539 226.936 614.539C234.998 614.536 243.584 611.367 250.183 605.269C256.785 599.174 261.365 590.117 261.36 578.488C261.36 575.996 261.152 573.385 260.708 570.659L258.41 570.997C258.834 573.616 259.034 576.113 259.034 578.488C259.029 589.566 254.719 597.984 248.561 603.684C242.402 609.384 234.358 612.333 226.936 612.331C226.065 612.331 225.206 612.289 224.358 612.209L224.128 614.407" fill="#D34E68"/>
<path d="M363.404 568.323C363.407 568.38 363.522 578.41 367.202 588.556C369.05 593.629 371.784 598.746 375.953 602.665C380.109 606.585 385.813 609.276 393.201 609.263C394.166 609.263 394.862 609.356 395.882 609.263L395.59 606.923C394.663 607.005 394.066 607.07 393.201 607.07C386.597 607.057 381.745 604.766 377.937 601.212C372.239 595.887 369.187 587.634 367.657 580.722C366.888 577.269 366.484 574.152 366.275 571.905C366.17 570.782 366.114 569.876 366.083 569.252C366.055 568.63 366.051 568.302 366.048 568.3L363.404 568.323Z" fill="#D34E68"/>
<path d="M216.672 563.473C216.672 563.473 219.858 442.279 214.113 380.461C199.646 330.12 202.7 294.506 237.71 280.638C287.202 277.133 382.279 273.832 407.714 287.449C433.143 301.066 402.741 417.867 399.552 451.036C397.316 474.32 398.357 562.356 398.357 562.356C391.135 566.584 379.976 571.862 365.686 573.535C354.19 574.882 346.29 573.239 339.189 572.28C298.828 566.823 285.321 583.629 251.336 577.265C243.046 575.71 230.784 572.265 216.672 563.473Z" fill="#D34E68"/>
<path d="M351.116 266.655L350.53 284.211C348.711 285.592 346.825 286.918 344.993 287.937C318.204 302.874 290.841 281.758 290.841 281.758L293.051 228.325L344.191 264.092L351.116 266.655Z" fill="#F9A794"/>
<path d="M351.115 266.067L350.467 281.969C348.618 283.395 346.755 284.623 344.894 285.676C322.672 275.372 307.226 249.979 307.226 249.979L344.079 261.072L351.115 266.067Z" fill="#D78A79"/>
<path d="M370.781 202.818C370.781 202.818 379.571 193.283 383.883 203.374C388.194 213.464 383.707 233.328 371.109 229.512L370.781 202.818" fill="#D78A79"/>
<path d="M378.238 237.879C378.238 237.879 376.993 268.352 345.3 266.941C313.802 265.548 293.385 239.903 292.318 238.709L292.284 238.679L292.211 232.26L291.829 198.943L291.622 181.138C291.622 181.138 288.954 148.975 319.602 144.43C341.996 141.106 362.669 145.678 372.69 157.712C373.013 158.099 373.327 158.496 373.622 158.904C376.758 163.116 378.653 168.173 378.971 174.055L378.602 206.008L378.512 213.841L378.238 237.879Z" fill="#F9A794"/>
<path fill-rule="evenodd" clip-rule="evenodd" d="M322.327 206.006C325.376 207.738 327.326 210.382 326.676 211.908C326.032 213.439 323.03 213.269 319.973 211.536C316.922 209.805 314.969 207.162 315.62 205.634C316.265 204.104 319.27 204.272 322.327 206.006" fill="#D34E68"/>
<path fill-rule="evenodd" clip-rule="evenodd" d="M369.388 206.602C372.563 205.114 375.847 205.048 376.718 206.46C377.596 207.869 375.724 210.223 372.544 211.718C369.369 213.209 366.084 213.278 365.212 211.864C364.334 210.454 366.208 208.098 369.388 206.602" fill="#D34E68"/>
<path d="M334.148 195.749C334.019 198.795 332.532 201.207 330.827 201.135C329.122 201.061 327.845 198.534 327.973 195.486C328.103 192.44 329.589 190.028 331.294 190.1C332.999 190.174 334.277 192.701 334.148 195.749Z" fill="#241C17"/>
<path d="M364.293 196.503C364.164 199.549 362.677 201.961 360.973 201.889C359.267 201.815 357.992 199.288 358.119 196.24C358.25 193.194 359.735 190.782 361.441 190.854C363.145 190.927 364.423 193.455 364.293 196.503" fill="#241C17"/>
<path d="M298.078 205.368C298.078 205.368 286.588 188.488 277.117 200.969C269.315 211.255 282.049 239.461 297.009 230.616L298.078 205.368" fill="#F9A794"/>
<path d="M295.553 225.613L295.689 225.611C296.381 225.565 296.905 224.968 296.859 224.276C295.926 210.294 284.417 204.977 283.928 204.758C283.295 204.474 282.553 204.758 282.269 205.389C281.987 206.021 282.268 206.761 282.899 207.045C283.332 207.243 293.525 212 294.355 224.442C294.399 225.088 294.921 225.586 295.553 225.613" fill="#D78A79"/>
<path d="M316.944 185.529C319.237 184.116 321.54 182.731 324.043 181.768C328.106 180.203 332.719 179.775 337.189 180.546C337.458 180.593 337.702 180.425 337.732 180.171C337.763 179.917 337.569 179.674 337.298 179.627C332.644 178.824 327.854 179.269 323.622 180.898C321.018 181.901 318.67 183.319 316.371 184.735C316.151 184.87 316.1 185.158 316.259 185.378C316.417 185.597 316.724 185.665 316.944 185.529Z" fill="#7D392F"/>
<path d="M356.341 180.503C358.805 180.423 361.259 180.366 363.604 180.69C367.412 181.214 370.933 182.768 373.641 185.117C373.804 185.258 374.076 185.237 374.249 185.069C374.421 184.901 374.428 184.649 374.264 184.508C371.445 182.062 367.787 180.449 363.823 179.902C361.382 179.566 358.877 179.629 356.407 179.708C357.343 179.058 355.964 179.9 355.946 180.12C355.928 180.34 356.105 180.512 356.341 180.503Z" fill="#7D392F"/>
<path d="M330.227 570.761C330.162 571.036 330.17 571.181 330.165 571.401C330.17 572.737 330.554 576.156 330.939 580.891C331.323 585.607 331.704 591.549 331.704 597.642C331.71 605.436 331.068 613.491 329.064 619.454C328.068 622.436 326.731 624.878 325.059 626.52C323.376 628.158 321.42 629.047 318.847 629.058L318.568 629.055L318.536 630.157H319.688C319.688 601.15 319.688 586.646 319.688 579.397C319.688 572.153 319.688 572.153 319.688 572.146H317.386C317.386 572.153 317.386 572.153 317.386 579.397C317.386 586.649 317.386 601.15 317.386 630.157V631.23L318.506 631.259L318.847 631.262C322.015 631.275 324.686 630.061 326.707 628.057C329.745 625.047 331.504 620.398 332.581 615.042C333.652 609.677 334.004 603.577 334.007 597.642C334.007 591.461 333.62 585.464 333.233 580.72C332.846 575.996 332.462 572.431 332.467 571.401L332.47 571.251V571.238L331.915 571.168L332.459 571.298L332.47 571.238L331.915 571.168L332.459 571.298L330.227 570.761" fill="#D34E68"/>
<path d="M449.94 368.651C455.05 412.767 457.258 463.239 456.979 473.518C426.319 486.311 401.965 455.629 389.854 385.772C408.276 376.706 428.513 370.998 449.94 368.651Z" fill="#F9A794"/>
<path d="M498.888 357.162C498.888 357.162 488.604 381.753 483.587 412.073C478.673 441.753 472.668 482.644 437.791 474.678C402.911 466.713 425.627 425.603 436.027 407.216C448.513 385.138 464.329 348.038 464.329 348.038L498.888 357.162" fill="#F9A794"/>
<path d="M472.186 341.642C477.012 329.286 495.41 327.046 498.46 327.19C501.507 327.334 512.231 311.407 517.921 316.449C523.157 321.094 511.631 331.827 511.631 331.827C511.631 331.827 523.121 334.339 531.911 332.214C536.621 327.433 544.027 318.002 548.696 321.824C555.252 327.188 536.876 344.614 528.117 344.847C519.357 345.077 497.649 361.984 479.561 363.861C461.473 365.738 455.406 347.563 472.186 341.642" fill="#F9A794"/>
<path d="M522.414 348.428C529.574 352.758 533.64 341.119 533.453 333.903C533.266 326.684 533.346 314.388 529.066 313.541C521.954 312.133 522.157 331.053 522.157 331.053" fill="#F9A794"/>
<path d="M506.201 356.647C513.59 361.661 524.467 357.371 525.314 343.682C526.155 330.036 523.773 324.863 519.374 324.123C514.972 323.386 513.204 340.359 513.204 340.359" fill="#F9A794"/>
<path d="M513.744 332.084C512.659 336.268 512.188 340.484 512.185 340.51L514.664 340.727C514.664 340.724 514.779 339.704 515.028 338.163C515.274 336.625 515.655 334.577 516.174 332.572L513.744 332.084" fill="#D78A79"/>
<path d="M525.667 349.367C526.185 347.707 526.523 345.858 526.645 343.817C526.756 341.997 526.811 340.326 526.811 338.791C526.809 335.048 526.492 332.12 525.865 329.83C525.236 327.547 524.282 325.868 522.939 324.768L521.493 326.444C522.354 327.143 523.137 328.377 523.692 330.395C524.247 332.408 524.564 335.172 524.562 338.791C524.562 340.277 524.509 341.907 524.401 343.688C524.287 345.573 523.978 347.254 523.515 348.732L525.667 349.367" fill="#D78A79"/>
<path d="M483.002 363.372C497.585 365.97 507.005 359.95 510.961 354.625C514.914 349.3 515.328 345.896 511.633 336.676C507.935 327.457 501.453 330.243 503.625 345.981C495.942 346.145 491.38 347.793 491.38 347.793C491.38 347.793 482.939 342.261 478.278 342.563" fill="#F9A794"/>
<path d="M509.449 358.008C510.475 357.023 511.352 356.013 512.075 355.036C514.253 352.123 515.52 349.53 515.509 346.314C515.506 343.532 514.621 340.393 512.883 336.056C512.144 334.223 511.297 332.802 510.343 331.779C509.397 330.771 508.286 330.095 507.005 330.084C506.194 330.079 505.411 330.393 504.803 330.902C503.888 331.673 503.269 332.815 502.829 334.311C502.397 335.81 502.158 337.686 502.158 339.969C502.158 341.707 502.299 343.684 502.604 345.9L503.764 345.758L503.736 344.666C495.868 344.833 491.167 346.519 491.07 346.553L491.491 347.573L492.162 346.679C492.137 346.663 490.108 345.332 487.447 343.987C484.769 342.653 481.544 341.257 478.74 341.231L478.278 341.247L478.44 343.427L478.74 343.419C480.673 343.393 483.823 344.622 486.336 345.91C487.601 346.55 488.728 347.193 489.536 347.673C489.94 347.915 490.265 348.116 490.485 348.254L490.82 348.468L491.332 348.802L491.912 348.591L492.085 348.535C492.976 348.244 497.199 346.992 503.789 346.851L505.089 346.825L504.921 345.619C504.627 343.483 504.495 341.599 504.495 339.969C504.492 337.118 504.908 335.038 505.485 333.792C505.768 333.167 506.087 332.758 506.354 332.54C506.626 332.324 506.805 332.275 507.005 332.27C507.305 332.259 507.882 332.468 508.583 333.218C509.276 333.956 510.03 335.167 510.695 336.825C512.399 341.067 513.178 343.99 513.172 346.314C513.161 348.979 512.221 350.992 510.153 353.789C509.504 354.668 508.704 355.589 507.775 356.483L509.449 358.008" fill="#D78A79"/>
<path d="M532.319 330.243C532.319 330.243 532.336 330.467 532.353 330.888C532.373 331.309 532.39 331.917 532.39 332.653C532.41 335.753 532.015 341.195 530.135 344.319L532.238 345.379C534.498 341.501 534.769 335.914 534.789 332.653C534.789 331.114 534.713 330.108 534.71 330.088L532.319 330.243Z" fill="#D78A79"/>
<path d="M502.403 336.071L502.384 336.094C502.09 336.432 498.968 339.683 494.164 339.66C493.159 339.66 492.07 339.522 490.894 339.19L490.245 341.494C491.628 341.888 492.941 342.055 494.164 342.055C497.302 342.055 499.808 340.956 501.513 339.869C503.221 338.778 504.153 337.699 504.206 337.637L502.403 336.071" fill="#D78A79"/>
<path d="M490.788 362.995C490.001 363.035 489.217 363.051 488.442 363.051C483.989 363.053 479.776 362.455 476.69 361.857C475.147 361.557 473.882 361.258 473.01 361.036C472.574 360.924 472.234 360.831 472.005 360.767L471.668 360.67L470.964 362.837C471.028 362.853 479.111 365.319 488.442 365.324C489.256 365.324 490.079 365.306 490.91 365.263L490.788 362.995Z" fill="#D78A79"/>
<path d="M449.498 376.961L423.679 425.824L425.784 426.824L451.603 377.959" fill="#D78A79"/>
<path d="M379.798 357.407C371.808 315.398 372.768 279.817 372.768 279.817C372.768 279.817 425.624 275.72 438.309 309.661C443.012 322.244 450.179 346.868 453.014 371.368C433.009 382.293 407.201 382.194 388.802 391.25C387.69 384.846 380.698 364.466 379.798 357.407Z" fill="#D34E68"/>
<path d="M174.777 368.649C168.238 416.532 160.541 469.611 160.483 480.816C190.636 495.708 215.925 463.057 230.291 387.366C212.218 376.913 196.069 371.878 174.777 368.649Z" fill="#F9A794"/>
<path d="M122.587 354.808C122.587 354.808 132.041 381.659 136.058 414.524C139.987 446.696 144.643 490.995 179.682 483.491C214.723 475.989 193.41 430.93 183.638 410.769C171.907 386.563 157.348 346.045 157.348 346.045L122.587 354.808" fill="#F9A794"/>
<path d="M148.956 339.021C144.519 326.474 126.142 323.688 123.08 323.743C120.021 323.798 109.787 307.491 103.918 312.391C98.5151 316.9 109.726 328.013 109.726 328.013C109.726 328.013 98.1209 330.203 89.3782 327.811C84.8111 322.871 77.6925 324.988 72.8839 328.688C66.1346 333.885 83.9948 340.119 92.7681 340.607C101.544 341.095 122.758 358.705 140.835 361.116C158.912 363.529 165.586 345.455 148.956 339.021" fill="#F9A794"/>
<path d="M129.235 361.849C130.611 361.954 131.976 362 133.305 362C141.903 361.997 149.12 360.114 149.181 360.101L148.548 358.011L148.248 358.085C146.823 358.429 140.508 359.831 133.305 359.831C132.034 359.831 130.732 359.787 129.428 359.688L129.235 361.849" fill="#D78A79"/>
<path d="M166.466 377.55L190.292 426.488L192.395 425.563L168.569 376.625" fill="#D78A79"/>
<path d="M241.15 357.371C250.52 316.05 254.225 280.648 254.225 280.648C254.225 280.648 213.09 269.917 196.384 310.119C191.268 322.431 176.093 346.567 172.45 370.718C192.096 382.092 212.929 381.106 231.032 390.586C232.355 384.286 240.017 364.328 241.15 357.371Z" fill="#D34E68"/>
<path d="M318.348 166.043C318.389 165.498 318.388 164.888 318.435 164.189C318.78 159.05 319.117 153.907 319.46 148.768C333.397 156.415 348.979 167.923 366.058 171.04C378.978 173.391 392.256 166.861 398.605 155.443C399.756 153.377 400.541 151.249 401.295 149.018C401.631 148.016 402.289 143.833 402.729 143.432C398.792 147.048 392.188 145.782 388.104 142.328C384.019 138.868 381.699 133.835 378.993 129.216C372.625 118.358 363.377 109.067 352.131 103.435C340.883 97.8045 327.624 95.9885 315.475 99.2179C307.845 101.248 300.742 105.323 295.163 110.926C292.406 113.692 289.913 116.878 288.103 120.356C287.267 121.968 283.969 130.604 285.981 131.899C282.882 129.906 278.58 130.767 275.703 133.068C272.824 135.364 271.109 138.809 269.754 142.233C263.999 156.815 263.498 173.346 268.038 188.332C270.055 195.004 273.381 200.66 276.793 206.621C279.601 211.529 283.765 216.85 290.082 216.093C298.813 215.051 295.775 200.566 297.176 192.666C297.726 189.571 296.987 185.889 300.389 184.504C303.838 183.102 310.557 189.072 312.52 183.129C313.228 180.981 312.411 178.67 311.654 176.535C310.901 174.41 310.213 172.008 311.148 169.957C311.24 169.759 315.759 169.319 316.403 168.987C317.951 168.193 318.253 167.293 318.348 166.043" fill="#1F1413"/>
<path d="M288.265 108.397C282.99 118.407 283.451 131.435 289.425 141.134" stroke="#1F1413" stroke-miterlimit="10" stroke-linecap="round"/>
<path d="M266.836 131.32C272.038 127.223 280.379 127.276 285.358 131.43" stroke="#1F1413" stroke-miterlimit="10" stroke-linecap="round"/>
<path d="M347.019 200.59C350.92 206.734 357.552 219.375 352.87 220.779C348.189 222.183 347.604 222.339 347.896 222.242" stroke="#7D392F"/>
<path d="M338.955 235.214C339.824 236.289 342.391 237.792 345.706 235.208C349.022 232.624 353.134 233.762 354.775 234.654" stroke="#7D392F"/>
<path d="M143.806 118.157L135.873 125.78C135.521 126.119 135.34 126.548 135.329 127.066C135.319 127.585 135.483 128.021 135.822 128.373L143.445 136.306C143.784 136.659 144.213 136.84 144.731 136.85C145.249 136.86 145.685 136.696 146.038 136.358L153.97 128.735C154.322 128.396 154.505 127.967 154.514 127.449C154.525 126.93 154.361 126.495 154.022 126.142L146.399 118.209C146.06 117.856 145.632 117.675 145.112 117.666C144.594 117.654 144.158 117.819 143.806 118.157Z" fill="#D34E68"/>
<path d="M131.398 84.4056C128.895 83.6096 126.378 83.3275 123.844 83.5581C121.311 83.7883 118.823 84.4202 116.382 85.4522C113.941 86.4847 111.839 87.8474 110.076 89.5418C103.378 95.9785 101.083 103.821 103.189 113.071C103.288 113.527 103.524 113.893 103.897 114.171C104.269 114.448 104.705 114.56 105.203 114.505L114.594 113.427C115.05 113.328 115.41 113.151 115.674 112.897C116.071 112.516 116.243 112.011 116.191 111.383C115.872 107.876 115.833 105.476 116.075 104.184C116.408 102.634 117.291 101.172 118.723 99.7958C120.067 98.5042 121.59 97.719 123.292 97.4385C124.995 97.1592 126.29 97.4827 127.179 98.4082C128.174 99.4433 128.704 100.545 128.767 101.714C128.83 102.882 128.497 104.388 127.769 106.233C126.792 108.655 126.364 111.365 126.489 114.361C126.613 117.357 127.554 119.769 129.311 121.598L130.741 123.085C131.143 123.504 131.655 123.806 132.279 123.991C132.902 124.177 133.379 124.111 133.709 123.793L141.642 116.17C141.994 115.831 142.139 115.365 142.074 114.768C142.011 114.173 141.799 113.688 141.44 113.314C140.911 112.763 140.504 111.733 140.22 110.226C139.937 108.718 140.002 107.276 140.419 105.901C140.813 104.591 141.109 103.555 141.308 102.791C141.508 102.027 141.679 100.938 141.827 99.5256C141.974 98.1128 141.95 96.8748 141.755 95.8126C141.56 94.7496 141.136 93.5358 140.482 92.1718C139.829 90.8074 138.93 89.5308 137.786 88.3411C136.029 86.5124 133.899 85.2007 131.398 84.4056Z" fill="#D34E68"/>
<path d="M336.191 44.4413L325.19 44.5988C324.702 44.6057 324.276 44.7963 323.915 45.1676C323.553 45.5399 323.376 45.9698 323.383 46.4588L323.541 57.4597C323.548 57.9487 323.738 58.3741 324.109 58.7352C324.481 59.0958 324.911 59.2738 325.4 59.2668L336.401 59.1094C336.889 59.1024 337.315 58.9126 337.675 58.541C338.038 58.1694 338.215 57.7388 338.208 57.2498L338.051 46.2489C338.044 45.7599 337.855 45.3351 337.481 44.9734C337.111 44.6116 336.679 44.4343 336.191 44.4413Z" fill="#D34E68"/>
<path d="M350.159 11.3023C348.873 9.01204 347.226 7.08821 345.216 5.52732C343.208 3.96705 340.958 2.73027 338.47 1.81884C335.981 0.907734 333.515 0.469036 331.07 0.50404C321.781 0.637017 314.75 4.80254 309.977 13.0008C309.739 13.4013 309.661 13.8302 309.744 14.2876C309.827 14.7443 310.069 15.123 310.471 15.4228L318.07 21.045C318.47 21.2833 318.854 21.4 319.221 21.3948C319.771 21.3869 320.241 21.1353 320.632 20.6408C322.792 17.8596 324.402 16.0792 325.46 15.2996C326.762 14.3949 328.405 13.9286 330.391 13.9001C332.255 13.8734 333.904 14.3389 335.339 15.2956C336.774 16.2533 337.5 17.3738 337.518 18.6571C337.539 20.0927 337.174 21.2598 336.423 22.1569C335.672 23.0537 334.4 23.9273 332.609 24.7784C330.242 25.8819 328.08 27.571 326.127 29.8454C324.172 32.1199 323.214 34.5252 323.25 37.0612L323.279 39.1237C323.288 39.7048 323.456 40.2752 323.785 40.8358C324.114 41.397 324.508 41.6738 324.966 41.6672L335.966 41.5097C336.455 41.5027 336.879 41.2603 337.24 40.7799C337.599 40.3023 337.776 39.803 337.768 39.2843C337.757 38.5206 338.163 37.4899 338.984 36.1951C339.806 34.8998 340.838 33.8907 342.082 33.1698C343.263 32.4807 344.187 31.9257 344.854 31.503C345.521 31.0814 346.39 30.4028 347.462 29.4712C348.533 28.5387 349.361 27.6175 349.943 26.7079C350.526 25.7981 351.044 24.6214 351.497 23.1781C351.951 21.7353 352.166 20.1887 352.142 18.5388C352.105 16.0026 351.444 13.5902 350.159 11.3023Z" fill="#D34E68"/>
<path d="M519.389 106.855L509.469 102.098C509.029 101.886 508.563 101.868 508.074 102.039C507.585 102.211 507.235 102.517 507.023 102.958L502.265 112.878C502.054 113.319 502.035 113.785 502.206 114.274C502.379 114.762 502.685 115.113 503.126 115.324L513.045 120.082C513.486 120.293 513.952 120.313 514.44 120.141C514.93 119.97 515.28 119.663 515.492 119.222L520.25 109.302C520.461 108.861 520.481 108.397 520.308 107.906C520.137 107.417 519.829 107.066 519.389 106.855Z" fill="#D34E68"/>
<path d="M546.653 83.4058C546.521 80.7824 545.903 78.3264 544.799 76.034C543.696 73.7428 542.232 71.6333 540.41 69.7092C538.588 67.7852 536.575 66.2941 534.37 65.2367C525.994 61.2194 517.844 61.8182 509.919 67.0332C509.527 67.2856 509.266 67.6348 509.137 68.0812C509.008 68.5273 509.056 68.9742 509.282 69.4215L513.583 77.8394C513.835 78.2312 514.127 78.5066 514.458 78.6653C514.954 78.9032 515.487 78.8872 516.057 78.6183C519.229 77.0902 521.464 76.213 522.759 75.9863C524.327 75.7558 526.006 76.07 527.797 76.929C529.477 77.7351 530.747 78.8862 531.606 80.382C532.464 81.8784 532.615 83.205 532.06 84.3622C531.439 85.6567 530.593 86.5393 529.521 87.0079C528.449 87.4765 526.921 87.6924 524.938 87.6568C522.327 87.5905 519.639 88.1402 516.878 89.3069C514.115 90.473 512.185 92.1999 511.089 94.4867L510.197 96.3466C509.945 96.8706 509.842 97.456 509.887 98.1047C509.932 98.7537 510.161 99.1768 510.574 99.3751L520.494 104.133C520.935 104.344 521.422 104.316 521.959 104.046C522.493 103.778 522.874 103.41 523.098 102.942C523.428 102.254 524.25 101.512 525.562 100.718C526.875 99.9242 528.249 99.4803 529.683 99.3886C531.048 99.2978 532.122 99.212 532.907 99.1306C533.693 99.0505 534.773 98.8295 536.147 98.4728C537.522 98.115 538.673 97.6586 539.599 97.1034C540.527 96.5485 541.515 95.7258 542.563 94.6352C543.612 93.5455 544.493 92.2561 545.206 90.7684C546.303 88.4812 546.785 86.0266 546.653 83.4058Z" fill="#D34E68"/>
<path d="M356.377 1057.49L361.485 1080.73L426.445 1075.26L427.524 1050.57L356.377 1057.49" fill="#D34E68"/>
<path d="M193.003 1051.73L194.591 1075.46L259.641 1079.74L264.386 1055.49L193.003 1051.73Z" fill="#D34E68"/>
</svg>
